<svg id="Layer_1" data-name="Layer 1" xmlns="http://www.w3.org/2000/svg" viewBox="0 0 228.38 85.85"><defs><style>.cls-1{font-size:19.33px;fill:#424242;font-family:Akrobat-Black, Akrobat;font-weight:800;}.cls-2{letter-spacing:-0.02em;}.cls-3,.cls-5{letter-spacing:0em;}.cls-4{fill:#0369a1;}.cls-5,.cls-8{fill:#67b3ce;}.cls-6{letter-spacing:-0.01em;}.cls-7{fill:#3a1a05;}.cls-9{fill:#f9f9f9;}</style></defs><text class="cls-1" transform="translate(95.88 42.47) scale(0.93 1)"><tspan class="cls-2">A</tspan><tspan class="cls-3" x="9.22" y="0">frican</tspan><tspan class="cls-4" x="53.37" y="0"> </tspan><tspan class="cls-5" x="57.23" y="0">Digital </tspan><tspan class="cls-6" x="0" y="17.53">E</tspan><tspan x="8.89" y="17.53">ducation</tspan><tspan class="cls-7" x="74.05" y="17.53"> </tspan><tspan class="cls-8" x="77.91" y="17.53">Network</tspan></text><path class="cls-8" d="M116.45,281.16l2.3-3.65v-.34l-1.55,1a49,49,0,0,0,0,81.72l1.09.72-2.35-4.06a47,47,0,0,1,.51-75.42Z" transform="translate(-95.23 -276.13)"/><circle class="cls-4" cx="49" cy="42.93" r="42.93"/><polygon class="cls-9" points="58.56 54.68 49.92 38.55 48.22 35.55 34.85 21.59 32 17.83 32.3 17.6 35.14 21.35 48.54 35.34 50.26 38.37 58.9 54.5 58.56 54.68"/><rect class="cls-9" x="59.26" y="57.04" width="0.38" height="16.15"/><rect class="cls-9" x="113.48" y="298.85" width="13.29" height="0.38" transform="translate(-280.82 -79.04) rotate(-49.67)"/><polygon class="cls-9" points="36.45 40.89 36.05 24.75 21.63 29.28 21.51 28.92 36.42 24.23 36.83 40.88 36.45 40.89"/><polygon class="cls-9" points="59.6 54.9 69.66 39.37 69.98 39.57 60.46 54.28 66.46 52.68 66.56 53.05 59.6 54.9"/><rect class="cls-9" x="162.46" y="303.54" width="0.38" height="8.39" transform="translate(-246.29 -119.19) rotate(-36.47)"/><polygon class="cls-9" points="69.73 50.81 69.44 50.57 78.13 40.26 78.13 36.95 73.98 37.51 73.93 37.13 78.51 36.51 78.51 40.4 78.47 40.45 69.73 50.81"/><polygon class="cls-9" points="46.93 19.01 43.71 15.89 45.29 12.35 41.67 11.02 35.04 15.03 32.15 15.03 32.15 14.65 34.94 14.65 41.63 10.6 45.8 12.14 44.17 15.8 47.2 18.73 46.93 19.01"/><rect class="cls-9" x="130.65" y="296.21" width="0.38" height="29.99" transform="translate(-301.71 48.5) rotate(-69.48)"/><polygon class="cls-9" points="63.87 27.25 63.16 22.56 59.97 19.09 57.32 19.94 53.2 17.92 48.71 19.13 48.61 18.76 53.24 17.52 57.35 19.53 60.09 18.65 63.52 22.39 64.25 27.2 63.87 27.25"/><polygon class="cls-9" points="60.05 36.24 59.72 36.07 63.71 28.49 55.39 30.07 55.32 29.7 64.41 27.97 60.05 36.24"/><rect class="cls-9" x="148.93" y="316.13" width="16.25" height="0.38" transform="translate(-148.93 -243.19) rotate(-10.23)"/><rect class="cls-9" x="139.63" y="335.86" width="15.46" height="0.38" transform="translate(-248.82 -150.01) rotate(-31.42)"/><rect class="cls-9" x="146.74" y="338.1" width="0.38" height="15.21" transform="translate(-314.5 -14.06) rotate(-54.11)"/><polygon class="cls-9" points="60.93 73.26 60.57 73.13 62.9 67 67.91 63.85 67.91 55.65 68.28 55.65 68.28 64.06 63.21 67.25 60.93 73.26"/><rect class="cls-9" x="137.45" y="325.73" width="13.56" height="0.38" transform="translate(-307.4 51.73) rotate(-66.44)"/><polygon class="cls-9" points="28.58 43.77 20.61 38.91 20.8 38.59 28.67 43.38 36.21 42.59 36.25 42.97 28.58 43.77"/><polygon class="cls-9" points="19.94 37.55 19.94 29.82 20.32 29.82 20.32 37.06 28.42 34.89 28.52 35.26 19.94 37.55"/><polygon class="cls-9" points="57.87 75.52 48.25 75.52 44.58 66.04 44.94 65.9 48.51 75.14 57.87 75.14 57.87 75.52"/><polygon class="cls-9" points="53.83 80.63 48.27 77 48.48 76.68 53.84 80.17 58.91 77.01 59.12 77.34 53.83 80.63"/><rect class="cls-9" x="132.92" y="297.11" width="9.55" height="0.38" transform="translate(-170.74 -227.61) rotate(-15.75)"/><rect class="cls-9" x="146.08" y="295.49" width="0.38" height="10.8" transform="translate(-229.89 -156.92) rotate(-31.18)"/><rect class="cls-9" x="47.6" y="20.29" width="0.38" height="7.95"/><rect class="cls-9" x="143.83" y="310.65" width="8.34" height="0.38" transform="translate(-285.53 98.58) rotate(-75.23)"/><rect class="cls-9" x="124.14" y="307.95" width="0.38" height="15.41" transform="translate(-305.77 93.88) rotate(-77.72)"/><rect class="cls-9" x="135.09" y="318.63" width="0.38" height="6.53" transform="translate(-289.12 -70.69) rotate(-47.72)"/><rect class="cls-9" x="42.93" y="37.88" width="0.38" height="10.08"/><polygon class="cls-9" points="44.51 63.72 45.25 55.91 42.94 49.18 43.3 49.06 45.63 55.87 45.63 55.91 45.01 62.46 51.99 53.47 52.29 53.7 44.51 63.72"/><circle class="cls-9" cx="30.3" cy="16.06" r="2.81"/><circle class="cls-9" cx="71.26" cy="37.31" r="2.81"/><circle class="cls-9" cx="68.45" cy="53.08" r="2.81"/><path class="cls-9" d="M157.18,351.34a2.36,2.36,0,0,1-2.31,2.3,2.39,2.39,0,0,1-2.3-2.3,2.27,2.27,0,0,1,2.3-2.31A2.31,2.31,0,0,1,157.18,351.34Z" transform="translate(-95.23 -276.13)"/><circle class="cls-9" cx="51.31" cy="41.16" r="2.81"/><circle class="cls-9" cx="20.13" cy="29.39" r="1.66"/><circle class="cls-9" cx="47.38" cy="19.12" r="1.41"/><circle class="cls-9" cx="43.12" cy="47.83" r="1.66"/><circle class="cls-9" cx="36.67" cy="42.47" r="1.7"/><circle class="cls-9" cx="54.12" cy="30.68" r="1.66"/><circle class="cls-9" cx="58.73" cy="55.89" r="1.66"/><circle class="cls-9" cx="69.57" cy="71.86" r="1.25"/><circle class="cls-9" cx="69.9" cy="64.92" r="1.07"/><circle class="cls-9" cx="70.93" cy="66.92" r="0.66"/><circle class="cls-9" cx="72.9" cy="71.86" r="0.58"/><circle class="cls-9" cx="73.93" cy="65.69" r="0.58"/><circle class="cls-9" cx="73.56" cy="63.6" r="0.73"/><circle class="cls-9" cx="71.55" cy="69.28" r="0.58"/><circle class="cls-9" cx="74.94" cy="66.69" r="0.58"/><circle class="cls-9" cx="76.41" cy="63.38" r="0.58"/><circle class="cls-9" cx="74.43" cy="60.95" r="1.03"/><circle class="cls-9" cx="44.76" cy="64.54" r="1.66"/><circle class="cls-9" cx="47.93" cy="75.48" r="1.51"/><circle class="cls-9" cx="20.38" cy="37.56" r="1.4"/><circle class="cls-9" cx="36.63" cy="22.85" r="1.66"/><circle class="cls-9" cx="64.35" cy="27.8" r="0.83"/><circle class="cls-9" cx="45.55" cy="56.68" r="1.17"/><rect class="cls-9" x="162.05" y="344.21" width="5.5" height="0.38" transform="translate(-288.5 200.77) rotate(-84.73)"/><polygon class="cls-9" points="69.86 64.73 69.79 64.36 73 63.79 73.89 61.44 74.25 61.57 73.28 64.12 69.86 64.73"/><polygon class="cls-9" points="76.93 63.09 76.55 63.09 76.55 61.62 74.84 60.66 75.03 60.33 76.93 61.4 76.93 63.09"/><polygon class="cls-9" points="71.64 73.78 69.71 72.39 69.93 72.08 71.6 73.28 72.79 72.1 73.05 72.37 71.64 73.78"/><rect class="cls-9" x="166.63" y="341.39" width="0.38" height="6.68" transform="translate(-218.96 -180.9) rotate(-23.52)"/><rect class="cls-9" x="164.41" y="346.41" width="2.84" height="0.38" transform="translate(-310.33 20.21) rotate(-56.92)"/><polygon class="cls-9" points="76.47 66.88 74.94 66.88 74.94 66.5 76.14 66.5 76.55 63.64 76.92 63.69 76.47 66.88"/><rect class="cls-9" x="170.15" y="337.62" width="0.38" height="2.63" transform="translate(-138.5 -250.66) rotate(-7.59)"/><rect class="cls-9" x="166.44" y="342.27" width="2.69" height="0.38" transform="translate(-180.72 -218.77) rotate(-15.52)"/><polygon class="cls-9" points="73.46 71.71 73.1 71.61 74.24 67.19 73.67 63.99 74.04 63.92 74.63 67.2 73.46 71.71"/><rect class="cls-9" x="169.06" y="340.19" width="2.86" height="0.38" transform="translate(-218.77 -177.55) rotate(-23.96)"/></svg>