<?xml version="1.0" encoding="utf-8"?>
<!-- Generator: Adobe Illustrator 25.2.3, SVG Export Plug-In . SVG Version: 6.00 Build 0)  -->
<svg version="1.1" id="Layer_1" xmlns="http://www.w3.org/2000/svg" xmlns:xlink="http://www.w3.org/1999/xlink" x="0px" y="0px"
	 viewBox="0 0 228.4 85.8" style="enable-background:new 0 0 228.4 85.8;" xml:space="preserve">
<style type="text/css">
	.st0{enable-background:new    ;}
	.st1{fill:#424242;}
	.st2{fill:#67B3CE;}
	.st3{fill:#0369A1;}
	.st4{fill:#F9F9F9;}
</style>
<g class="st0">
	<path class="st1" d="M100.7,40h-2.9l-0.5,2.5H95l3.1-13.5h2.4l3.1,13.5h-2.3L100.7,40z M100.3,37.8l-0.5-2.5
		c-0.2-0.9-0.4-2.4-0.5-3.3h-0.1c-0.1,0.9-0.3,2.4-0.5,3.3l-0.5,2.5H100.3z"/>
</g>
<g class="st0">
	<path class="st1" d="M107.1,31.9v0.4h1.7v2.1h-1.7v8.1H105v-8.1h-1.3v-2.1h1.3v-0.4c0-2.1,1-3.7,3.4-3.7h0.6v2.1h-0.6
		C107.4,30.3,107.1,30.7,107.1,31.9z"/>
	<path class="st1" d="M115.1,32.2v2.2c-0.3-0.2-0.7-0.3-1.2-0.3c-1.1,0-1.8,0.7-1.8,2v6.4H110V32.2h1.4l0.2,1.1
		c0.5-0.9,1.3-1.4,2.4-1.4C114.5,32,114.8,32.1,115.1,32.2z"/>
	<path class="st1" d="M116.1,29.3c0-0.8,0.5-1.3,1.2-1.3c0.7,0,1.2,0.6,1.2,1.3c0,0.7-0.5,1.3-1.2,1.3
		C116.6,30.7,116.1,30.1,116.1,29.3z M116.2,32.2h2.1v10.2h-2.1V32.2z"/>
	<path class="st1" d="M120.1,38.9v-3.1c0-2.4,1.2-3.8,3.3-3.8c2.2,0,3.3,1.4,3.4,3.8h-2.1c0-1.1-0.5-1.6-1.2-1.6
		c-0.8,0-1.2,0.5-1.2,1.6v3.1c0,1.1,0.4,1.6,1.2,1.6c0.8,0,1.2-0.5,1.3-1.6h2.1c-0.1,2.4-1.3,3.8-3.4,3.8
		C121.3,42.7,120.1,41.3,120.1,38.9z"/>
	<path class="st1" d="M134.5,35.8v6.6h-1.7l-0.1-1c-0.4,0.7-1,1.2-2.1,1.2c-1.7,0-2.9-1.3-2.9-3.2c0-2.2,1.5-3.2,3.5-3.2h1.1v-0.5
		c0-1-0.3-1.6-1.1-1.6c-0.6,0-1.1,0.3-1.2,1.1H128c0.1-2.1,1.3-3.3,3.3-3.3C133.5,32,134.5,33.3,134.5,35.8z M132.4,38.3h-1.1
		c-0.9,0-1.4,0.4-1.4,1.3c0,0.7,0.4,1.2,1.2,1.2c0.8,0,1.3-0.5,1.3-1.4V38.3z"/>
	<path class="st1" d="M143.1,36.1v6.3H141v-6.3c0-1.5-0.4-2-1.1-2c-0.8,0-1.3,0.7-1.3,1.9v6.4h-2.1V32.2h1.4l0.2,1.1
		c0.5-0.9,1.3-1.4,2.3-1.4C142,32,143.1,33.3,143.1,36.1z"/>
</g>
<g class="st0">
</g>
<g class="st0">
	<path class="st2" d="M149.3,28.9h3.3c2.5,0,4,1.6,4,4.4V38c0,2.8-1.5,4.4-3.9,4.4h-3.3V28.9z M152.6,40.2c1.1,0,1.7-0.8,1.7-2.2
		v-4.7c0-1.4-0.6-2.1-1.7-2.1h-1.1v9H152.6z"/>
	<path class="st2" d="M158.2,29.3c0-0.8,0.5-1.3,1.2-1.3c0.7,0,1.2,0.6,1.2,1.3c0,0.7-0.5,1.3-1.2,1.3
		C158.7,30.7,158.2,30.1,158.2,29.3z M158.3,32.2h2.1v10.2h-2.1V32.2z"/>
	<path class="st2" d="M169,32.2v10.7c0,2-1.2,3.3-3.3,3.3c-2,0-3.2-1.3-3.3-3.3h2.1c0.1,0.7,0.4,1.2,1.2,1.2c0.7,0,1.1-0.5,1.1-1.2
		v-1.4c-0.4,0.3-1,0.5-1.6,0.5c-1.8,0-3-1.5-3-3.8v-2.4c0-2.3,1.3-3.9,3-3.9c0.8,0,1.6,0.3,2.1,0.9l0.1-0.7H169z M166.8,38.2v-2.4
		c0-1.1-0.5-1.6-1.3-1.6c-0.8,0-1.2,0.5-1.2,1.7v2.4c0,1.1,0.4,1.6,1.2,1.6S166.8,39.3,166.8,38.2z"/>
	<path class="st2" d="M170.8,29.3c0-0.8,0.5-1.3,1.2-1.3c0.7,0,1.2,0.6,1.2,1.3c0,0.7-0.5,1.3-1.2,1.3
		C171.3,30.7,170.8,30.1,170.8,29.3z M170.9,32.2h2.1v10.2h-2.1V32.2z"/>
	<path class="st2" d="M179.4,40.5v2.1h-0.7c-2,0-3.2-1.4-3.2-3.6v-4.7h-1.3v-2.1h1.3v-2.4h2.1v2.4h1.7v2.1h-1.7V39
		c0,1,0.4,1.4,1.2,1.4H179.4z"/>
	<path class="st2" d="M187.1,35.8v6.6h-1.7l-0.1-1c-0.4,0.7-1,1.2-2.1,1.2c-1.7,0-2.9-1.3-2.9-3.2c0-2.2,1.5-3.2,3.5-3.2h1.1v-0.5
		c0-1-0.3-1.6-1.1-1.6c-0.6,0-1.1,0.3-1.2,1.1h-2.1c0.1-2.1,1.3-3.3,3.3-3.3C186.1,32,187.1,33.3,187.1,35.8z M185,38.3h-1.1
		c-0.9,0-1.4,0.4-1.4,1.3c0,0.7,0.4,1.2,1.2,1.2c0.8,0,1.3-0.5,1.3-1.4V38.3z"/>
	<path class="st2" d="M189,28.5h2.1v14H189V28.5z"/>
</g>
<g class="st0">
	<path class="st1" d="M102.6,57.8V60h-6.5V46.5h6.3v2.2h-4.1v3.3h3.8v2.2h-3.8v3.5H102.6z"/>
</g>
<g class="st0">
	<path class="st1" d="M110.6,46v14h-1.5l-0.1-0.9c-0.5,0.6-1.3,1.2-2.1,1.2c-1.8,0-3-1.5-3-4v-2.7c0-2.4,1.2-4,3-4
		c0.6,0,1.2,0.3,1.6,0.7V46H110.6z M108.6,53.5c0-1.2-0.5-1.8-1.3-1.8c-0.8,0-1.2,0.6-1.2,1.8v2.7c0,1.2,0.4,1.8,1.2,1.8
		c0.8,0,1.3-0.6,1.3-1.8V53.5z"/>
	<path class="st1" d="M119.1,49.8V60h-1.4l-0.2-1.1c-0.5,0.9-1.3,1.4-2.3,1.4c-1.7,0-2.7-1.4-2.7-4.1v-6.3h2.1v6.3
		c0,1.5,0.4,2,1.1,2c0.8,0,1.3-0.7,1.3-1.9v-6.4H119.1z"/>
	<path class="st1" d="M120.9,56.4v-3.1c0-2.4,1.2-3.8,3.3-3.8c2.2,0,3.3,1.4,3.4,3.8h-2.1c0-1.1-0.5-1.6-1.2-1.6
		c-0.8,0-1.2,0.5-1.2,1.6v3.1c0,1.1,0.4,1.6,1.2,1.6c0.8,0,1.2-0.5,1.3-1.6h2.1c-0.1,2.4-1.3,3.8-3.4,3.8
		C122.1,60.2,120.9,58.8,120.9,56.4z"/>
	<path class="st1" d="M135.3,53.4V60h-1.7l-0.1-1c-0.4,0.7-1,1.2-2.1,1.2c-1.7,0-2.9-1.3-2.9-3.2c0-2.2,1.5-3.2,3.5-3.2h1.1v-0.5
		c0-1-0.3-1.6-1.1-1.6c-0.6,0-1.1,0.3-1.2,1.1h-2.1c0.1-2.1,1.3-3.3,3.3-3.3C134.3,49.5,135.3,50.9,135.3,53.4z M133.1,55.8h-1.1
		c-0.9,0-1.4,0.4-1.4,1.3c0,0.7,0.4,1.2,1.2,1.2c0.8,0,1.3-0.5,1.3-1.4V55.8z"/>
	<path class="st1" d="M141.6,58v2.1h-0.7c-2,0-3.2-1.4-3.2-3.6v-4.7h-1.3v-2.1h1.3v-2.4h2.1v2.4h1.7v2.1h-1.7v4.7
		c0,1,0.4,1.4,1.2,1.4H141.6z"/>
	<path class="st1" d="M142.9,46.9c0-0.8,0.5-1.3,1.2-1.3c0.7,0,1.2,0.6,1.2,1.3c0,0.7-0.5,1.3-1.2,1.3
		C143.4,48.2,142.9,47.6,142.9,46.9z M143.1,49.8h2.1V60h-2.1V49.8z"/>
	<path class="st1" d="M146.9,56.3v-2.8c0-2.6,1.3-4,3.4-4c2.2,0,3.5,1.4,3.5,4v2.8c0,2.6-1.3,4-3.5,4
		C148.2,60.3,146.9,58.8,146.9,56.3z M151.6,56.3v-2.8c0-1.2-0.5-1.8-1.3-1.8c-0.8,0-1.3,0.5-1.3,1.8v2.8c0,1.2,0.5,1.8,1.3,1.8
		C151.2,58,151.6,57.5,151.6,56.3z"/>
	<path class="st1" d="M162.2,53.7V60h-2.1v-6.3c0-1.5-0.4-2-1.1-2c-0.8,0-1.3,0.7-1.3,1.9V60h-2.1V49.8h1.4l0.2,1.1
		c0.5-0.9,1.3-1.4,2.3-1.4C161.2,49.5,162.2,50.9,162.2,53.7z"/>
</g>
<g class="st0">
</g>
<g class="st0">
	<path class="st2" d="M176.3,46.5V60h-2.2l-2.4-5.9c-0.4-1.1-0.8-2.3-1.2-3.3l-0.1,0.1c0.2,1.5,0.3,3.8,0.3,5.2V60h-2.2V46.5h2.2
		l2.6,6.4c0.3,0.9,0.7,1.9,1,2.8l0.1-0.1c-0.2-1.5-0.3-3.7-0.3-4.9v-4.1H176.3z"/>
	<path class="st2" d="M185.1,56.8c-0.2,2.2-1.5,3.5-3.5,3.5c-2.1,0-3.3-1.5-3.3-3.9v-2.9c0-2.5,1.3-3.9,3.3-3.9
		c2.1,0,3.4,1.4,3.4,3.9v2.3h-4.6v0.6c0,1.2,0.4,1.8,1.2,1.8c0.9,0,1.2-0.4,1.4-1.3H185.1z M180.3,53.4v0.7h2.5v-0.7
		c0-1.2-0.5-1.7-1.3-1.7C180.8,51.6,180.3,52.2,180.3,53.4z"/>
	<path class="st2" d="M191,58v2.1h-0.7c-2,0-3.2-1.4-3.2-3.6v-4.7h-1.3v-2.1h1.3v-2.4h2.1v2.4h1.7v2.1h-1.7v4.7c0,1,0.4,1.4,1.2,1.4
		H191z"/>
	<path class="st2" d="M203.2,49.8L201,60h-2.3l-0.6-2.9c-0.3-1.5-0.6-3.2-0.6-4.3h-0.1c-0.1,1.1-0.3,2.8-0.6,4.3l-0.6,2.9h-2.3
		l-2.2-10.2h2.2l0.7,4c0.2,1.2,0.4,2.9,0.5,3.7h0.1c0.1-0.9,0.3-2.4,0.5-3.6l0.7-3.9h2.2l0.7,3.9c0.2,1.2,0.4,2.7,0.5,3.6h0.1
		c0.1-0.8,0.3-2.5,0.5-3.7l0.7-4H203.2z"/>
	<path class="st2" d="M204,56.3v-2.8c0-2.6,1.3-4,3.4-4c2.2,0,3.5,1.4,3.5,4v2.8c0,2.6-1.3,4-3.5,4C205.3,60.3,204,58.8,204,56.3z
		 M208.7,56.3v-2.8c0-1.2-0.5-1.8-1.3-1.8c-0.8,0-1.3,0.5-1.3,1.8v2.8c0,1.2,0.5,1.8,1.3,1.8C208.2,58,208.7,57.5,208.7,56.3z"/>
	<path class="st2" d="M217.7,49.7v2.2c-0.3-0.2-0.7-0.3-1.2-0.3c-1.1,0-1.8,0.7-1.8,2V60h-2.1V49.8h1.4l0.2,1.1
		c0.5-0.9,1.3-1.4,2.4-1.4C217.1,49.5,217.4,49.6,217.7,49.7z"/>
	<path class="st2" d="M221.5,55.6l-0.6,0.6V60h-2.1V46h2.1v7.4l2.2-3.6h2.5l-2.7,4.1L226,60h-2.4L221.5,55.6z"/>
</g>
<path class="st2" d="M21.2,5l2.3-3.6V1L22,2C-0.6,17-6.8,47.4,8.2,69.9c3.6,5.5,8.3,10.2,13.8,13.8l1.1,0.7l-2.3-4.1
	C0,64.8-4.1,35.3,11.5,14.6C14.3,10.9,17.5,7.7,21.2,5L21.2,5z"/>
<circle class="st3" cx="49" cy="42.9" r="42.9"/>
<polygon class="st4" points="58.6,54.7 49.9,38.5 48.2,35.5 34.8,21.6 32,17.8 32.3,17.6 35.1,21.4 48.5,35.3 50.3,38.4 58.9,54.5 
	"/>
<rect x="59.3" y="57" class="st4" width="0.4" height="16.2"/>
<rect x="18.2" y="22.7" transform="matrix(0.6472 -0.7623 0.7623 0.6472 -8.6914 27.0615)" class="st4" width="13.3" height="0.4"/>
<polygon class="st4" points="36.5,40.9 36,24.8 21.6,29.3 21.5,28.9 36.4,24.2 36.8,40.9 "/>
<polygon class="st4" points="59.6,54.9 69.7,39.4 70,39.6 60.5,54.3 66.5,52.7 66.6,53 "/>
<rect x="67.2" y="27.4" transform="matrix(0.8042 -0.5944 0.5944 0.8042 -5.5796 46.2668)" class="st4" width="0.4" height="8.4"/>
<polygon class="st4" points="69.7,50.8 69.4,50.6 78.1,40.3 78.1,37 74,37.5 73.9,37.1 78.5,36.5 78.5,40.4 78.5,40.5 "/>
<polygon class="st4" points="46.9,19 43.7,15.9 45.3,12.4 41.7,11 35,15 32.2,15 32.2,14.6 34.9,14.6 41.6,10.6 45.8,12.1 
	44.2,15.8 47.2,18.7 "/>
<rect x="35.4" y="20.1" transform="matrix(0.3505 -0.9365 0.9365 0.3505 -9.6965 56.1169)" class="st4" width="0.4" height="30"/>
<polygon class="st4" points="63.9,27.2 63.2,22.6 60,19.1 57.3,19.9 53.2,17.9 48.7,19.1 48.6,18.8 53.2,17.5 57.3,19.5 60.1,18.6 
	63.5,22.4 64.2,27.2 "/>
<polygon class="st4" points="60,36.2 59.7,36.1 63.7,28.5 55.4,30.1 55.3,29.7 64.4,28 "/>
<rect x="53.7" y="40" transform="matrix(0.9841 -0.1776 0.1776 0.9841 -6.1585 11.6161)" class="st4" width="16.2" height="0.4"/>
<rect x="44.4" y="59.8" transform="matrix(0.8534 -0.5213 0.5213 0.8534 -23.6075 35.9592)" class="st4" width="15.5" height="0.4"/>
<rect x="51.5" y="62" transform="matrix(0.5862 -0.8101 0.8101 0.5862 -34.9663 70.6744)" class="st4" width="0.4" height="15.2"/>
<polygon class="st4" points="60.9,73.3 60.6,73.1 62.9,67 67.9,63.8 67.9,55.7 68.3,55.7 68.3,64.1 63.2,67.2 "/>
<rect x="42.2" y="49.6" transform="matrix(0.3997 -0.9166 0.9166 0.3997 -16.2296 74.8094)" class="st4" width="13.6" height="0.4"/>
<polygon class="st4" points="28.6,43.8 20.6,38.9 20.8,38.6 28.7,43.4 36.2,42.6 36.2,43 "/>
<polygon class="st4" points="19.9,37.5 19.9,29.8 20.3,29.8 20.3,37.1 28.4,34.9 28.5,35.3 "/>
<polygon class="st4" points="57.9,75.5 48.2,75.5 44.6,66 44.9,65.9 48.5,75.1 57.9,75.1 "/>
<polygon class="st4" points="53.8,80.6 48.3,77 48.5,76.7 53.8,80.2 58.9,77 59.1,77.3 "/>
<rect x="37.7" y="21" transform="matrix(0.9625 -0.2714 0.2714 0.9625 -4.1464 12.3262)" class="st4" width="9.6" height="0.4"/>
<rect x="50.8" y="19.4" transform="matrix(0.8555 -0.5177 0.5177 0.8555 -5.4561 29.9987)" class="st4" width="0.4" height="10.8"/>
<rect x="47.6" y="20.3" class="st4" width="0.4" height="8"/>
<rect x="48.6" y="34.5" transform="matrix(0.2549 -0.967 0.967 0.2549 5.7482 76.8916)" class="st4" width="8.3" height="0.4"/>
<rect x="28.9" y="31.8" transform="matrix(0.2127 -0.9771 0.9771 0.2127 -15.7108 59.5638)" class="st4" width="0.4" height="15.4"/>
<rect x="39.9" y="42.5" transform="matrix(0.6728 -0.7399 0.7399 0.6728 -20.763 44.6116)" class="st4" width="0.4" height="6.5"/>
<rect x="42.9" y="37.9" class="st4" width="0.4" height="10.1"/>
<polygon class="st4" points="44.5,63.7 45.2,55.9 42.9,49.2 43.3,49.1 45.6,55.9 45.6,55.9 45,62.5 52,53.5 52.3,53.7 "/>
<circle class="st4" cx="30.3" cy="16.1" r="2.8"/>
<circle class="st4" cx="71.3" cy="37.3" r="2.8"/>
<circle class="st4" cx="68.4" cy="53.1" r="2.8"/>
<path class="st4" d="M61.9,75.2c0,1.3-1,2.3-2.3,2.3c-1.3,0-2.3-1-2.3-2.3c0-1.3,1-2.3,2.2-2.3c0,0,0,0,0.1,0
	C60.9,72.9,61.9,73.9,61.9,75.2z"/>
<circle class="st4" cx="51.3" cy="41.2" r="2.8"/>
<circle class="st4" cx="20.1" cy="29.4" r="1.7"/>
<circle class="st4" cx="47.4" cy="19.1" r="1.4"/>
<circle class="st4" cx="43.1" cy="47.8" r="1.7"/>
<circle class="st4" cx="36.7" cy="42.5" r="1.7"/>
<circle class="st4" cx="54.1" cy="30.7" r="1.7"/>
<circle class="st4" cx="58.7" cy="55.9" r="1.7"/>
<circle class="st4" cx="69.6" cy="71.9" r="1.2"/>
<circle class="st4" cx="69.9" cy="64.9" r="1.1"/>
<circle class="st4" cx="70.9" cy="66.9" r="0.7"/>
<circle class="st4" cx="72.9" cy="71.9" r="0.6"/>
<circle class="st4" cx="73.9" cy="65.7" r="0.6"/>
<circle class="st4" cx="73.6" cy="63.6" r="0.7"/>
<circle class="st4" cx="71.6" cy="69.3" r="0.6"/>
<circle class="st4" cx="74.9" cy="66.7" r="0.6"/>
<circle class="st4" cx="76.4" cy="63.4" r="0.6"/>
<circle class="st4" cx="74.4" cy="61" r="1"/>
<circle class="st4" cx="44.8" cy="64.5" r="1.7"/>
<circle class="st4" cx="47.9" cy="75.5" r="1.5"/>
<circle class="st4" cx="20.4" cy="37.6" r="1.4"/>
<circle class="st4" cx="36.6" cy="22.9" r="1.7"/>
<circle class="st4" cx="64.3" cy="27.8" r="0.8"/>
<circle class="st4" cx="45.5" cy="56.7" r="1.2"/>
<rect x="66.8" y="68.1" transform="matrix(9.184916e-02 -0.9958 0.9958 9.184916e-02 -4.8208 131.313)" class="st4" width="5.5" height="0.4"/>
<polygon class="st4" points="69.9,64.7 69.8,64.4 73,63.8 73.9,61.4 74.2,61.6 73.3,64.1 "/>
<polygon class="st4" points="76.9,63.1 76.6,63.1 76.6,61.6 74.8,60.7 75,60.3 76.9,61.4 "/>
<polygon class="st4" points="71.6,73.8 69.7,72.4 69.9,72.1 71.6,73.3 72.8,72.1 73.1,72.4 "/>
<rect x="71.4" y="65.3" transform="matrix(0.9169 -0.3991 0.3991 0.9169 -21.437 34.2628)" class="st4" width="0.4" height="6.7"/>
<rect x="69.2" y="70.2" transform="matrix(0.5458 -0.8379 0.8379 0.5458 -26.9536 91.1491)" class="st4" width="2.8" height="0.4"/>
<polygon class="st4" points="76.5,66.9 74.9,66.9 74.9,66.5 76.1,66.5 76.6,63.6 76.9,63.7 "/>
<rect x="74.9" y="61.5" transform="matrix(0.9912 -0.1321 0.1321 0.9912 -7.6376 10.4717)" class="st4" width="0.4" height="2.6"/>
<rect x="71.2" y="66.1" transform="matrix(0.9635 -0.2676 0.2676 0.9635 -15.0958 21.8385)" class="st4" width="2.7" height="0.4"/>
<polygon class="st4" points="73.5,71.7 73.1,71.6 74.2,67.2 73.7,64 74,63.9 74.6,67.2 "/>
<rect x="73.8" y="64.1" transform="matrix(0.9138 -0.4061 0.4061 0.9138 -19.6124 36.0993)" class="st4" width="2.9" height="0.4"/>
</svg>
