<?xml version="1.0" encoding="utf-8"?>
<!-- Generator: Adobe Illustrator 25.2.3, SVG Export Plug-In . SVG Version: 6.00 Build 0)  -->
<svg version="1.1" id="Layer_1" xmlns="http://www.w3.org/2000/svg" xmlns:xlink="http://www.w3.org/1999/xlink" x="0px" y="0px"
	 viewBox="0 0 1180 1180" style="enable-background:new 0 0 1180 1180;" xml:space="preserve">
<style type="text/css">
	.st0{fill:#381D10;}
	.st1{font-family:'Poppins-Medium';}
	.st2{font-size:63.0015px;}
	.st3{fill:#A66E4F;}
	.st4{fill:#FAFAFA;}
</style>
<g>
	<text transform="matrix(1 0 0 1 520.6962 521.2947)"><tspan x="0" y="0" class="st0 st1 st2">African </tspan><tspan x="243.43" y="0" class="st3 st1 st2">Digital </tspan><tspan x="0" y="75.6" class="st0 st1 st2">Education </tspan><tspan x="334.66" y="75.6" class="st3 st1 st2">Network</tspan></text>
	<circle class="st0" cx="262.87" cy="564.39" r="232.18"/>
	<g>
		<path class="st3" d="M446.45,739.05c-45.92,49.28-111.37,80.11-183.91,80.11c-103.47,0-192.51-62.74-231.07-152.15H19.74
			c39.22,95.52,133.28,162.97,242.81,162.97c1.64,0,36.24-0.12,69.93-9.46c121.29-33.64,188.78-175.16,198.78-196.83
			c73.56-1.29,585.22-10.3,585.23-10.3l0,0c-248.36,10.86-322.86,21.23-322.87,21.23C708.47,646.48,588.53,673.04,446.45,739.05z
			 M187.8,327.43v-11.3C97.95,342.85,28.18,416.46,6.87,508.47h11.14C38.83,422.41,103.96,353.5,187.8,327.43z M337.95,316.34v11.25
			c43.43,13.68,81.84,38.89,111.59,71.99h14.33C431.31,360.7,387.71,331.27,337.95,316.34z"/>
	</g>
	<g>
		<g>
			<polygon class="st4" points="308.66,615.82 261.91,528.56 252.72,512.33 180.39,436.85 164.94,416.51 166.58,415.27 
				181.96,435.52 254.44,511.21 263.71,527.57 310.47,614.85 			"/>
		</g>
		<g>
			<rect x="312.43" y="628.58" class="st4" width="2.06" height="87.38"/>
		</g>
		<g>
			
				<rect x="90.62" y="442.96" transform="matrix(0.6472 -0.7623 0.7623 0.6472 -293.8126 253.1519)" class="st4" width="71.91" height="2.06"/>
		</g>
		<g>
			<polygon class="st4" points="189.04,541.21 186.88,453.89 108.86,478.42 108.25,476.45 188.87,451.11 191.09,541.16 			"/>
		</g>
		<g>
			<polygon class="st4" points="314.26,617.02 368.69,532.97 370.42,534.09 318.89,613.66 351.37,604.99 351.9,606.98 			"/>
		</g>
		<g>
			
				<rect x="355.53" y="468.32" transform="matrix(0.8042 -0.5944 0.5944 0.8042 -222.0304 308.082)" class="st4" width="2.06" height="45.4"/>
		</g>
		<g>
			<polygon class="st4" points="369.08,594.9 367.51,593.58 414.49,537.83 414.49,519.9 392.05,522.95 391.77,520.91 416.55,517.55 
				416.55,538.58 416.31,538.87 			"/>
		</g>
		<g>
			<polygon class="st4" points="245.74,422.86 228.32,406 236.84,386.86 217.26,379.63 181.42,401.33 165.76,401.33 165.76,399.28 
				180.85,399.28 217.04,377.35 239.61,385.7 230.79,405.52 247.17,421.38 			"/>
		</g>
		<g>
			
				<rect x="183.49" y="428.66" transform="matrix(0.3506 -0.9365 0.9365 0.3506 -357.5846 503.8503)" class="st4" width="2.06" height="162.22"/>
		</g>
		<g>
			<polygon class="st4" points="337.37,467.46 333.53,442.06 316.26,423.3 301.92,427.9 279.62,416.98 255.33,423.52 254.8,421.53 
				279.84,414.79 302.08,425.69 316.89,420.94 335.46,441.13 339.41,467.15 			"/>
		</g>
		<g>
			<polygon class="st4" points="316.71,516.09 314.89,515.13 336.49,474.17 291.47,482.71 291.09,480.69 340.29,471.35 			"/>
		</g>
		<g>
			
				<rect x="282.38" y="536.4" transform="matrix(0.9841 -0.1777 0.1777 0.9841 -90.2989 66.532)" class="st4" width="87.87" height="2.06"/>
		</g>
		<g>
			
				<rect x="232.08" y="643.13" transform="matrix(0.8533 -0.5214 0.5214 0.8533 -295.6762 237.279)" class="st4" width="83.63" height="2.06"/>
		</g>
		<g>
			
				<rect x="270.53" y="655.24" transform="matrix(0.5863 -0.8101 0.8101 0.5863 -451.8123 508.1275)" class="st4" width="2.06" height="82.3"/>
		</g>
		<g>
			<polygon class="st4" points="321.43,716.32 319.51,715.59 332.1,682.43 359.18,665.41 359.18,621.05 361.23,621.05 
				361.23,666.55 333.78,683.8 			"/>
		</g>
		<g>
			
				<rect x="220.26" y="588.33" transform="matrix(0.3997 -0.9167 0.9167 0.3997 -385.9997 589.3027)" class="st4" width="73.33" height="2.05"/>
		</g>
		<g>
			<polygon class="st4" points="146.49,556.79 103.35,530.51 104.42,528.76 146.97,554.68 187.77,550.43 187.98,552.47 			"/>
		</g>
		<g>
			<polygon class="st4" points="99.74,523.18 99.74,481.33 101.79,481.33 101.79,520.5 145.61,508.78 146.14,510.76 			"/>
		</g>
		<g>
			<polygon class="st4" points="304.89,728.55 252.84,728.55 233.03,677.26 234.95,676.51 254.25,726.5 304.89,726.5 			"/>
		</g>
		<g>
			<polygon class="st4" points="283.06,756.15 252.99,736.54 254.11,734.82 283.09,753.71 310.55,736.61 311.64,738.35 			"/>
		</g>
		<g>
			
				<rect x="195.76" y="433.56" transform="matrix(0.9625 -0.2714 0.2714 0.9625 -109.617 76.4411)" class="st4" width="51.66" height="2.06"/>
		</g>
		<g>
			
				<rect x="266.92" y="424.78" transform="matrix(0.8555 -0.5178 0.5178 0.8555 -196.3522 204.3262)" class="st4" width="2.06" height="58.43"/>
		</g>
		<g>
			<rect x="249.33" y="429.78" class="st4" width="2.06" height="42.98"/>
		</g>
		<g>
			
				<rect x="254.75" y="506.79" transform="matrix(0.2549 -0.967 0.967 0.2549 -284.4221 646.5161)" class="st4" width="45.12" height="2.06"/>
		</g>
		<g>
			
				<rect x="148.25" y="492.15" transform="matrix(0.2127 -0.9771 0.9771 0.2127 -404.0819 566.1555)" class="st4" width="2.06" height="83.34"/>
		</g>
		<g>
			
				<rect x="207.5" y="549.96" transform="matrix(0.6727 -0.7399 0.7399 0.6727 -351.7229 340.042)" class="st4" width="2.06" height="35.32"/>
		</g>
		<g>
			<rect x="224.07" y="524.96" class="st4" width="2.06" height="54.54"/>
		</g>
		<g>
			<polygon class="st4" points="232.64,664.73 236.62,622.47 224.13,586.06 226.07,585.4 238.71,622.22 238.69,622.44 
				235.35,657.88 273.08,609.25 274.7,610.51 			"/>
		</g>
		<g>
			<circle class="st4" cx="155.76" cy="406.93" r="15.19"/>
		</g>
		<g>
			<circle class="st4" cx="377.35" cy="521.84" r="15.19"/>
		</g>
		<g>
			<circle class="st4" cx="362.15" cy="607.16" r="15.19"/>
		</g>
		<g>
			<path class="st4" d="M326.96,726.86c0,6.88-5.59,12.05-12.47,12.47c-5.98,0.36-12.16-5.46-12.47-12.47
				c-0.3-6.88,5.58-12.47,12.47-12.47C321.38,714.39,326.96,719.97,326.96,726.86z"/>
		</g>
		<g>
			<circle class="st4" cx="269.44" cy="542.68" r="15.19"/>
		</g>
		<g>
			<circle class="st4" cx="100.77" cy="478.99" r="8.96"/>
		</g>
		<g>
			<circle class="st4" cx="248.17" cy="423.44" r="7.63"/>
		</g>
		<g>
			<circle class="st4" cx="225.1" cy="578.78" r="8.96"/>
		</g>
		<g>
			<circle class="st4" cx="190.26" cy="549.76" r="9.22"/>
		</g>
		<g>
			<circle class="st4" cx="284.63" cy="486.01" r="8.96"/>
		</g>
		<g>
			<circle class="st4" cx="309.56" cy="622.35" r="8.96"/>
		</g>
		<g>
			<circle class="st4" cx="368.19" cy="708.72" r="6.77"/>
		</g>
		<g>
			<circle class="st4" cx="369.95" cy="671.2" r="5.78"/>
		</g>
		<g>
			<circle class="st4" cx="375.55" cy="682.02" r="3.55"/>
		</g>
		<g>
			<circle class="st4" cx="386.2" cy="708.72" r="3.12"/>
		</g>
		<g>
			<circle class="st4" cx="391.76" cy="675.39" r="3.12"/>
		</g>
		<g>
			<circle class="st4" cx="389.76" cy="664.08" r="3.94"/>
		</g>
		<g>
			<circle class="st4" cx="378.9" cy="694.8" r="3.12"/>
		</g>
		<g>
			<circle class="st4" cx="397.21" cy="680.78" r="3.12"/>
		</g>
		<g>
			<circle class="st4" cx="405.2" cy="662.86" r="3.12"/>
		</g>
		<g>
			<circle class="st4" cx="394.49" cy="649.71" r="5.55"/>
		</g>
		<g>
			<circle class="st4" cx="233.99" cy="669.15" r="8.96"/>
		</g>
		<g>
			<circle class="st4" cx="251.13" cy="728.31" r="8.18"/>
		</g>
		<g>
			<circle class="st4" cx="102.13" cy="523.21" r="7.6"/>
		</g>
		<g>
			<circle class="st4" cx="189.99" cy="443.65" r="8.96"/>
		</g>
		<g>
			<circle class="st4" cx="339.97" cy="470.4" r="4.48"/>
		</g>
		<g>
			<circle class="st4" cx="238.25" cy="626.61" r="6.32"/>
		</g>
		<g>
			
				<rect x="353.33" y="688.32" transform="matrix(0.0918 -0.9958 0.9958 0.0918 -352.0388 992.7286)" class="st4" width="29.73" height="2.06"/>
		</g>
		<g>
			<polygon class="st4" points="369.73,670.16 369.38,668.14 386.72,665.07 391.58,652.37 393.5,653.1 388.23,666.89 			"/>
		</g>
		<g>
			<polygon class="st4" points="407.98,661.3 405.92,661.3 405.92,653.34 396.71,648.18 397.72,646.38 407.98,652.13 			"/>
		</g>
		<g>
			<polygon class="st4" points="379.4,719.13 368.95,711.61 370.16,709.94 379.19,716.44 385.58,710.05 387.03,711.5 			"/>
		</g>
		<g>
			
				<rect x="378.07" y="673.05" transform="matrix(0.9169 -0.3991 0.3991 0.9169 -244.3386 208.7489)" class="st4" width="2.05" height="36.11"/>
		</g>
		<g>
			
				<rect x="366.07" y="700.2" transform="matrix(0.5459 -0.8379 0.8379 0.5459 -417.8128 631.5878)" class="st4" width="15.34" height="2.06"/>
		</g>
		<g>
			<polygon class="st4" points="405.51,681.81 397.21,681.81 397.21,679.75 403.72,679.75 405.93,664.27 407.97,664.56 			"/>
		</g>
		<g>
			
				<rect x="397.12" y="652.67" transform="matrix(0.9912 -0.1321 0.1321 0.9912 -83.6554 58.3685)" class="st4" width="2.06" height="14.21"/>
		</g>
		<g>
			
				<rect x="377.08" y="677.8" transform="matrix(0.9636 -0.2675 0.2675 0.9636 -167.5769 127.5495)" class="st4" width="14.56" height="2.06"/>
		</g>
		<g>
			<polygon class="st4" points="389.25,707.92 387.26,707.4 393.43,683.47 390.36,666.16 392.38,665.8 395.54,683.55 			"/>
		</g>
		<g>
			
				<rect x="391.22" y="666.54" transform="matrix(0.9138 -0.4061 0.4061 0.9138 -236.7377 219.5717)" class="st4" width="15.49" height="2.06"/>
		</g>
	</g>
</g>
</svg>
